<svg version="1.2" xmlns="http://www.w3.org/2000/svg" viewBox="0 0 720 720" width="720" height="720">
	<title>favicon</title> 
		<style>
			.s0 { fill: #1b2b34;stroke: #ffffff;stroke-width: 13 } 
			.s1 { fill: #ffffff;stroke: #ffffff;stroke-linecap: round;stroke-linejoin: round;stroke-width: 3.1 } 
		</style>
	<path id="Background" class="s0" d="m0 65c0-35.9 29.1-65 65-65h590c35.9 0 65 29.1 65 65v590c0 35.9-29.1 65-65 65h-590c-35.9 0-65-29.1-65-65z"/>
	<path id="īˈa" class="s1" d="m217.9 538.2h-34c-4.9 0-6.9-2.7-6.9-15.1v-327c0-12.8 2-15.1 6.9-15.1h34c2 0 7 0 7 9.1 0 9.6-5 9.6-7 9.6h-22c-2.1 0-3.9 1.8-3.9 3.9v312c0 2.1 1.8 3.9 3.9 3.9h22c2 0 7 0 7 9.6 0 9.1-5 9.1-7 9.1zm73.1-114l-16-43.5c-0.5-1.4-2.4-1.4-3 0l-16 43.5c-1.8 4.5-5.7 15-9.7 4.1-2.2-6.4 0.5-14.2 1.8-16.9l19-52-19-52c-1.3-3.2-3.7-10.1-1.8-16.5 4-11.4 8.2-0.4 9.7 3.7l16.1 43.5c0.5 1.4 2.4 1.4 2.9 0l16-43.1c1.8-4.5 5.5-15 9.4-4.1 2.5 6.4-0.5 14.2-1.5 16.9l-19.2 51.6 19.2 52c1.3 3.2 4 10.5 1.5 16.9-3.7 10-7.6 0-9.4-4.1zm102.3-226.3l-56.8 327.5c-1 5-2.2 12.8-5.9 12.8-2.3 0-5.5-3.2-5.5-11.4 0-1.8 0.5-3.2 1-5.5l56.8-327.5c0.8-4.6 2.2-12.8 5.9-12.8 2 0 5.5 3.2 5.5 11.4 0 1.8-0.8 3.2-1 5.5zm70.1 226.3l-16-43.5c-0.5-1.4-2.5-1.4-3 0l-16 43.5c-1.8 4.5-5.7 15-9.7 4.1-2.2-6.4 0.5-14.2 1.8-16.9l18.8-51.5c0.1-0.3 0.1-0.7 0-1.1l-18.8-51.4c-1.3-3.2-3.8-10.1-1.8-16.5 4-11.4 8.2-0.4 9.7 3.7l16 43.5c0.5 1.4 2.5 1.4 3 0l16-43.1c1.8-4.5 5.5-15 9.4-4.1 2.5 6.4-0.5 14.2-1.5 16.9l-19 51c-0.2 0.4-0.2 0.8 0 1.1l19 51.5c1.3 3.2 4 10.5 1.5 16.9-3.7 10-7.6 0-9.4-4.1zm72.1 114h-34c-2.3 0-7 0-7-9.1 0-9.6 4.7-9.6 7-9.6h22c2.1 0 3.9-1.8 3.9-3.9v-312c0-2.1-1.8-3.9-3.9-3.9h-22c-2.3 0-7 0-7-9.6 0-9.1 4.7-9.1 7-9.1h34c4.9 0 6.7 2.7 6.7 15.1v327c0 12.8-2 15.1-6.7 15.1z"/>
</svg>